# 3ds Max Wavefront OBJ Exporter v0.97b - (c)2007 guruware
# File Created: 12.05.2019 14:09:41

#
# object cardboar_box_005
#

v  16.8810 0.0000 14.6667
v  -16.8810 0.0000 14.6667
v  -16.8810 0.0000 -14.6667
v  16.8810 0.0000 -14.6667
v  16.8810 15.6667 -14.6667
v  -16.8810 15.6667 -14.6667
v  -16.8810 15.6667 14.6667
v  16.8810 15.6667 14.6667
v  16.8810 14.6667 15.6667
v  -16.8810 14.6667 15.6667
v  -16.8810 1.0000 15.6667
v  16.8810 1.0000 15.6667
v  17.4701 14.6667 -14.6667
v  17.4701 14.6667 14.6667
v  17.4701 1.0000 14.6667
v  17.4701 1.0000 -14.6667
v  -16.8810 14.6667 -15.6667
v  16.8810 14.6667 -15.6667
v  16.8810 1.0000 -15.6667
v  -16.8810 1.0000 -15.6667
v  -17.4701 14.6667 14.6667
v  -17.4701 14.6667 -14.6667
v  -17.4701 1.0000 -14.6667
v  -17.4701 1.0000 14.6667
# 24 vertices

vn 0.4414 -0.8355 0.3273
vn -0.4414 -0.8355 0.3273
vn -0.4414 -0.8355 -0.3273
vn 0.4414 -0.8355 -0.3273
vn 0.4414 0.8355 -0.3273
vn -0.4414 0.8355 -0.3273
vn -0.4414 0.8355 0.3273
vn 0.4414 0.8355 0.3273
vn 0.4414 0.3273 0.8355
vn -0.4414 0.3273 0.8355
vn -0.4414 -0.3273 0.8355
vn 0.4414 -0.3273 0.8355
vn 0.9372 0.2466 -0.2466
vn 0.9372 0.2466 0.2466
vn 0.9372 -0.2466 0.2466
vn 0.9372 -0.2466 -0.2466
vn -0.4414 0.3273 -0.8355
vn 0.4414 0.3273 -0.8355
vn 0.4414 -0.3273 -0.8355
vn -0.4414 -0.3273 -0.8355
vn -0.9372 0.2466 0.2466
vn -0.9372 0.2466 -0.2466
vn -0.9372 -0.2466 -0.2466
vn -0.9372 -0.2466 0.2466
# 24 vertex normals

vt 0.3703 0.0209 0.0000
vt 0.5001 0.0209 0.0000
vt 0.5001 0.1337 0.0000
vt 0.3703 0.1337 0.0000
vt 0.5045 0.5683 0.0000
vt 0.3747 0.5683 0.0000
vt 0.3747 0.4555 0.0000
vt 0.5045 0.4555 0.0000
vt 0.4592 0.1388 0.0000
vt 0.3294 0.1388 0.0000
vt 0.3294 0.0862 0.0000
vt 0.4592 0.0862 0.0000
vt 0.9562 0.2019 0.0000
vt 0.8434 0.2019 0.0000
vt 0.8434 0.1493 0.0000
vt 0.9562 0.1493 0.0000
vt 0.5973 0.1574 0.0000
vt 0.4675 0.1574 0.0000
vt 0.4675 0.1049 0.0000
vt 0.5973 0.1049 0.0000
vt 0.7462 0.1846 0.0000
vt 0.6334 0.1846 0.0000
vt 0.6334 0.1321 0.0000
vt 0.7462 0.1321 0.0000
vt 0.7507 0.1321 0.0000
vt 0.7474 0.1278 0.0000
vt 0.8423 0.1450 0.0000
vt 0.8389 0.1493 0.0000
vt 0.6323 0.1278 0.0000
vt 0.6289 0.1321 0.0000
vt 0.9607 0.1493 0.0000
vt 0.9574 0.1450 0.0000
vt 0.7444 0.9903 0.0000
vt 0.7401 0.9955 0.0000
vt 0.7401 0.9885 0.0000
vt 0.5240 0.9950 0.0000
vt 0.5240 0.9995 0.0000
vt 0.5196 0.9962 0.0000
vt 0.6268 0.9885 0.0000
vt 0.6268 0.9955 0.0000
vt 0.6225 0.9903 0.0000
vt 0.6411 0.9962 0.0000
vt 0.6368 0.9995 0.0000
vt 0.6368 0.9950 0.0000
vt 0.4675 0.0994 0.0000
vt 0.5973 0.0994 0.0000
vt 0.8434 0.1448 0.0000
vt 0.9562 0.1448 0.0000
vt 0.3294 0.0808 0.0000
vt 0.4592 0.0808 0.0000
vt 0.4592 0.1442 0.0000
vt 0.3294 0.1442 0.0000
vt 0.5973 0.1629 0.0000
vt 0.4675 0.1629 0.0000
vt 0.8389 0.2019 0.0000
vt 0.7507 0.1846 0.0000
vt 0.9607 0.2019 0.0000
vt 0.6289 0.1846 0.0000
vt 0.6334 0.1276 0.0000
vt 0.7462 0.1276 0.0000
# 60 texture coords

o cardboar_box_005
g cardboar_box_005
s 1
f 1/1/1 2/2/2 3/3/3 4/4/4 
f 5/5/5 6/6/6 7/7/7 8/8/8 
f 9/9/9 10/10/10 11/11/11 12/12/12 
f 13/13/13 14/14/14 15/15/15 16/16/16 
f 17/17/17 18/18/18 19/19/19 20/20/20 
f 21/21/21 22/22/22 23/23/23 24/24/24 
f 11/25/11 24/24/24 2/26/2 
f 1/27/1 15/15/15 12/28/12 
f 3/29/3 23/23/23 20/30/20 
f 19/31/19 16/16/16 4/32/4 
f 10/33/10 7/34/7 21/35/21 
f 14/36/14 8/37/8 9/38/9 
f 22/39/22 6/40/6 17/41/17 
f 18/42/18 5/43/5 13/44/13 
f 19/19/19 4/45/4 3/46/3 20/20/20 
f 15/15/15 1/47/1 4/48/4 16/16/16 
f 11/11/11 2/49/2 1/50/1 12/12/12 
f 9/9/9 8/51/8 7/52/7 10/10/10 
f 17/17/17 6/53/6 5/54/5 18/18/18 
f 21/35/21 7/34/7 6/40/6 22/39/22 
f 14/14/14 9/55/9 12/28/12 15/15/15 
f 24/24/24 11/25/11 10/56/10 21/21/21 
f 18/57/18 13/13/13 16/16/16 19/31/19 
f 22/22/22 17/58/17 20/30/20 23/23/23 
f 23/23/23 3/59/3 2/60/2 24/24/24 
f 13/44/13 5/43/5 8/37/8 14/36/14 
# 18 polygons - 8 triangles

